<?xml version="1.0" encoding="UTF-8"?>
<svg id="Layer_1" data-name="Layer 1" xmlns="http://www.w3.org/2000/svg" viewBox="0 0 279.04 453.82">
  <defs>
    <linearGradient id="name-gold" x1="0" y1="0" x2="0" y2="1">
      <stop offset="0" stop-color="#e7cd86"/>
      <stop offset="0.5" stop-color="#b88a3a"/>
      <stop offset="1" stop-color="#93692a"/>
    </linearGradient>
    <style>
      .cls-1 {
        stroke-width: 0px;
        fill: url(#name-gold);
      }
    </style>
  </defs>
  <path class="cls-1" d="m279.03,323.31c-.07-4.83-.53-9.62-.9-14.43-1.24-16.04-6.82-30.3-17.19-42.69-10.82-12.94-24.76-18.1-41.27-16.55-7.56.71-14.64,3.09-20.52,8.24-.54.47-1.03,1.2-2,.81-.78-.97-.44-2.15-.45-3.25-.05-6.34.05-12.69-.1-19.03-.17-7.66.67-15.16,2.37-22.64,1.74-7.66,4.59-14.75,9.35-21.04,3.06-4.05,5.97-8.21,9.42-11.96.54-.59,1.45-1.16.77-2.42-1.94.18-3.43,1.43-5.01,2.37-13.16,7.91-25.88,16.49-38.52,25.23-15.32,10.58-24.6,24.93-28.94,42.77-2.23,9.17-3.24,18.5-3.01,27.92.34,14.08.96,28.15,1.28,42.22.3,13.32.14,26.62-1.1,39.92-1.17,12.47-3.56,24.6-8.05,36.27-3.96,10.31-9.4,19.72-17.89,27.02-7.75,6.67-16.6,11.62-25.71,16.18-3.5,1.75-6.78,1.73-10.18.1-1.94-.93-3.91-1.82-5.8-2.86-7.79-4.29-15.22-9.15-22.22-14.65-23.44-18.38-38.77-41.92-45.12-71.13-3.04-13.97-3.73-28.14-3.34-42.39.31-11.2,1.76-22.26,5.02-33,6.94-22.86,20.34-41.33,39.12-55.82,14.89-11.49,30.91-21.3,47.43-30.29,19.85-10.8,40.31-20.37,60.82-29.84,7.36-3.4,14.62-7.08,22.33-9.69,7.38-2.5,14.21-6.09,20.8-10.2,14.68-9.16,21-22.4,18.54-39.43-1.43-9.92-4.54-19.51-8.03-28.92-.45-1.22-.85-2.64-2.34-3.32-.63.86-.26,1.6-.18,2.3.34,3.3.3,6.58-.3,9.85-2.62,14.45-11.31,24.11-24.25,30.17-19.18,8.99-38.46,17.79-57.7,26.67-7.49,3.46-15.02,6.83-22.43,10.44-2.46,1.2-4.31.83-6.22-.83-2.92-2.53-4.61-5.75-5.07-9.53-1.56-12.73,2.19-23.57,11.8-32.2,8.35-7.5,18.13-12.53,28.7-16.05,8.09-2.7,15.87-6.1,23.43-10.01,7.15-3.7,13.66-8.3,19.18-14.2,5.87-6.29,8.98-13.65,9.1-22.35.08-5.8-1.13-11.34-2.44-16.89-1.75-7.41-3.45-14.84-6.7-21.78-.45-.96-.61-2.23-2.3-2.41-.81,3.26-.22,6.54-.34,9.76-.3,7.93-3.12,14.78-8.12,20.88-4.6,5.61-10.46,9.56-16.65,13.1-7.42,4.25-15.47,7.02-23.47,9.88-10.46,3.74-20.37,8.54-29.01,15.62-8.47,6.95-14.25,15.47-14.97,26.75-.39,6.1-.02,12.17,1.04,18.2,2.06,11.77,5.16,23.27,8.57,34.71,1.21,4.05,1.24,4.19-2.37,6.48-7.19,4.57-14.02,9.6-20.41,15.24-12.05,10.62-23.04,22.25-32.03,35.54-10.18,15.06-18.6,31.15-25.18,48.14-4.84,12.48-8.3,25.34-9.54,38.68-1.41,15.21-.73,30.41,1.44,45.54,2.58,18.05,8.24,35.07,17.64,50.71,5.98,9.94,13.62,18.64,21.95,26.68,10.3,9.94,21.74,18.26,34.82,24.22,1.21.55,2.69.77,3.44,2.08-.43,1.08-1.41,1.14-2.21,1.39-11.17,3.56-22.58,5.92-34.34,6.17-7.61.16-15.23.08-22.84.15-1.37.01-2.79-.29-4.53.57.54.48.77.87,1.07.92,8.25,1.48,16.52,2.9,24.94,2.27,14.18-1.06,28.31-2.57,41.87-7.26,3.14-1.09,6.2-.93,9.32.1,6.78,2.23,13.78,3.55,20.83,4.37,10.58,1.23,21.2,1.64,31.89,1.02,9.58-.55,18.94-2.04,27.98-5.12,24.54-8.38,46.04-21.69,64.22-40.26,12.59-12.86,23.75-26.76,31.48-43.16,5.98-12.67,9.52-25.91,9.32-40.05Zm-3.61,10.62c-.48,8.97-3.46,17.38-7.12,25.52-5.62,12.48-13.29,23.66-22.04,34.1-14.54,17.35-32.23,30.81-52.14,41.38-12.54,6.66-25.87,11.23-39.96,13-8.28,1.04-16.65,1.21-25.06.72-10.33-.6-20.36-2.58-30.35-4.99-.98-.24-1.94-.54-3.61-1.01,5.24-2.62,10.15-4.02,14.57-6.52,12.86-7.28,24.41-16.41,35.94-25.56,5.07-4.02,9.9-8.37,15.17-12.1,10.47-7.39,17.83-17.22,23.34-28.55,6.62-13.62,9.98-28.16,11.75-43.11,1.76-14.91,1.65-29.87,1.37-44.84-.1-5.07-.1-10.14.02-15.22.09-3.7,1.77-6.23,4.67-8.2.52-.36,1.05-.72,1.63-.98,18.78-8.55,35.78-7.76,51.64,6.26,11.61,10.27,17.33,23.54,19.44,38.56,1.47,10.47,1.3,21.02.73,31.54Z"/>
</svg>