<svg width="280" height="454" viewBox="0 0 280 454" fill="none" xmlns="http://www.w3.org/2000/svg">
<path d="M279.03 323.31C278.96 318.48 278.5 313.69 278.13 308.88C276.89 292.84 271.31 278.58 260.94 266.19C250.12 253.25 236.18 248.09 219.67 249.64C212.11 250.35 205.03 252.73 199.15 257.88C198.61 258.35 198.12 259.08 197.15 258.69C196.37 257.72 196.71 256.54 196.7 255.44C196.65 249.1 196.75 242.75 196.6 236.41C196.43 228.75 197.27 221.25 198.97 213.77C200.71 206.11 203.56 199.02 208.32 192.73C211.38 188.68 214.29 184.52 217.74 180.77C218.28 180.18 219.19 179.61 218.51 178.35C216.57 178.53 215.08 179.78 213.5 180.72C200.34 188.63 187.62 197.21 174.98 205.95C159.66 216.53 150.38 230.88 146.04 248.72C143.81 257.89 142.8 267.22 143.03 276.64C143.37 290.72 143.99 304.79 144.31 318.86C144.61 332.18 144.45 345.48 143.21 358.78C142.04 371.25 139.65 383.38 135.16 395.05C131.2 405.36 125.76 414.77 117.27 422.07C109.52 428.74 100.67 433.69 91.56 438.25C88.06 440 84.78 439.98 81.38 438.35C79.44 437.42 77.47 436.53 75.58 435.49C67.79 431.2 60.36 426.34 53.36 420.84C29.92 402.46 14.59 378.92 8.24002 349.71C5.20002 335.74 4.51002 321.57 4.90002 307.32C5.21002 296.12 6.66002 285.06 9.92002 274.32C16.86 251.46 30.26 232.99 49.04 218.5C63.93 207.01 79.95 197.2 96.47 188.21C116.32 177.41 136.78 167.84 157.29 158.37C164.65 154.97 171.91 151.29 179.62 148.68C187 146.18 193.83 142.59 200.42 138.48C215.1 129.32 221.42 116.08 218.96 99.0502C217.53 89.1302 214.42 79.5402 210.93 70.1302C210.48 68.9102 210.08 67.4902 208.59 66.8102C207.96 67.6702 208.33 68.4102 208.41 69.1102C208.75 72.4102 208.71 75.6902 208.11 78.9602C205.49 93.4102 196.8 103.07 183.86 109.13C164.68 118.12 145.4 126.92 126.16 135.8C118.67 139.26 111.14 142.63 103.73 146.24C101.27 147.44 99.42 147.07 97.51 145.41C94.59 142.88 92.9 139.66 92.44 135.88C90.88 123.15 94.63 112.31 104.24 103.68C112.59 96.1802 122.37 91.1502 132.94 87.6302C141.03 84.9302 148.81 81.5302 156.37 77.6202C163.52 73.9202 170.03 69.3202 175.55 63.4202C181.42 57.1302 184.53 49.7702 184.65 41.0702C184.73 35.2702 183.52 29.7302 182.21 24.1802C180.46 16.7702 178.76 9.34023 175.51 2.40023C175.06 1.44023 174.9 0.170234 173.21 -0.00976562C172.4 3.25023 172.99 6.53023 172.87 9.75023C172.57 17.6802 169.75 24.5302 164.75 30.6302C160.15 36.2402 154.29 40.1902 148.1 43.7302C140.68 47.9802 132.63 50.7502 124.63 53.6102C114.17 57.3502 104.26 62.1502 95.62 69.2302C87.15 76.1802 81.37 84.7002 80.65 95.9802C80.26 102.08 80.63 108.15 81.69 114.18C83.75 125.95 86.85 137.45 90.26 148.89C91.47 152.94 91.5 153.08 87.89 155.37C80.7 159.94 73.87 164.97 67.48 170.61C55.43 181.23 44.44 192.86 35.45 206.15C25.27 221.21 16.85 237.3 10.27 254.29C5.43002 266.77 1.97002 279.63 0.730017 292.97C-0.679983 308.18 1.69277e-05 323.38 2.17002 338.51C4.75002 356.56 10.41 373.58 19.81 389.22C25.79 399.16 33.43 407.86 41.76 415.9C52.06 425.84 63.5 434.16 76.58 440.12C77.79 440.67 79.27 440.89 80.02 442.2C79.59 443.28 78.61 443.34 77.81 443.59C66.64 447.15 55.23 449.51 43.47 449.76C35.86 449.92 28.24 449.84 20.63 449.91C19.26 449.92 17.84 449.62 16.1 450.48C16.64 450.96 16.87 451.35 17.17 451.4C25.42 452.88 33.69 454.3 42.11 453.67C56.29 452.61 70.42 451.1 83.98 446.41C87.12 445.32 90.18 445.48 93.3 446.51C100.08 448.74 107.08 450.06 114.13 450.88C124.71 452.11 135.33 452.52 146.02 451.9C155.6 451.35 164.96 449.86 174 446.78C198.54 438.4 220.04 425.09 238.22 406.52C250.81 393.66 261.97 379.76 269.7 363.36C275.68 350.69 279.22 337.45 279.02 323.31H279.03ZM275.42 333.93C274.94 342.9 271.96 351.31 268.3 359.45C262.68 371.93 255.01 383.11 246.26 393.55C231.72 410.9 214.03 424.36 194.12 434.93C181.58 441.59 168.25 446.16 154.16 447.93C145.88 448.97 137.51 449.14 129.1 448.65C118.77 448.05 108.74 446.07 98.75 443.66C97.77 443.42 96.81 443.12 95.14 442.65C100.38 440.03 105.29 438.63 109.71 436.13C122.57 428.85 134.12 419.72 145.65 410.57C150.72 406.55 155.55 402.2 160.82 398.47C171.29 391.08 178.65 381.25 184.16 369.92C190.78 356.3 194.14 341.76 195.91 326.81C197.67 311.9 197.56 296.94 197.28 281.97C197.18 276.9 197.18 271.83 197.3 266.75C197.39 263.05 199.07 260.52 201.97 258.55C202.49 258.19 203.02 257.83 203.6 257.57C222.38 249.02 239.38 249.81 255.24 263.83C266.85 274.1 272.57 287.37 274.68 302.39C276.15 312.86 275.98 323.41 275.41 333.93H275.42Z" fill="#93692A"/>
</svg>
